{"title":"8 Simple Rules 1x10 Give It Up DvDRip_XviD-FoV","uid":7514414,"size":183830530,"categoryP":"video","categoryS":"tv_shows","magnet":"?xt=urn:btih:d1d1bb0522028997abdc33efa5439f349163eb46&amp;dn=8+Simple+Rules+1x10+Give+It+Up+DvDRip_XviD-FoV&amp;tr=udp%3A%2F%2Ftracker.openbittorrent.com%3A80&amp;tr=udp%3A%2F%2Fopen.demonii.com%3A1337&amp;tr=udp%3A%2F%2Ftracker.coppersurfer.tk%3A6969&amp;tr=udp%3A%2F%2Fexodus.desync.com%3A6969","seeders":0,"leechers":1,"uploader":"Mowale3_Elnet","files":1,"time":1344386779,"description":"Format                                   : AVI\nFormat/Info                              : Audio Video Interleave\nFile size                                : 175 MiB\nDuration                                 : 21mn 40s\nOverall bit rate mode                    : Variable\nOverall bit rate                         : 1 131 Kbps\nWriting application                      : Nandub v1.0rc2\nWriting library                          : Nandub build 1853/release\n\nVideo\nID                                       : 0\nFormat                                   : MPEG-4 Visual\nFormat profile                           : Advanced Simple@L5\nFormat settings, BVOP                    : 2\nFormat settings, QPel                    : No\nFormat settings, GMC                     : No warppoints\nFormat settings, Matrix                  : Default (H.263)\nMuxing mode                              : Packed bitstream\nCodec ID                                 : XVID\nCodec ID/Hint                            : XviD\nDuration                                 : 21mn 40s\nBit rate                                 : 984 Kbps\nWidth                                    : 624 pixels\nHeight                                   : 352 pixels\nDisplay aspect ratio                     : 16:9\nFrame rate                               : 23.976 fps\nColor space                              : YUV\nChroma subsampling                       : 4:2:0\nBit depth                                : 8 bits\nScan type                                : Progressive\nCompression mode                         : Lossy\nBits/(Pixel*Frame)                       : 0.187\nStream size                              : 152 MiB (87%)\nWriting library                          : XviD 1.2.0SMP (UTC 2006-01-08)\n\nAudio\nID                                       : 1\nFormat                                   : MPEG Audio\nFormat version                           : Version 1\nFormat profile                           : Layer 3\nMode                                     : Joint stereo\nMode extension                           : MS Stereo\nCodec ID                                 : 55\nCodec ID/Hint                            : MP3\nDuration                                 : 21mn 40s\nBit rate mode                            : Variable\nBit rate                                 : 134 Kbps\nChannel(s)                               : 2 channels\nSampling rate                            : 48.0 KHz\nCompression mode                         : Lossy\nDelay relative to video                  : 8ms\nStream size                              : 20.8 MiB (12%)\nAlignment                                : Aligned on interleaves\nInterleave, duration                     : 24 ms (0.58 video frame)\nInterleave, preload duration             : 365 ms","torrent":{"xt":"urn:btih:d1d1bb0522028997abdc33efa5439f349163eb46","amp;dn":"8+Simple+Rules+1x10+Give+It+Up+DvDRip_XviD-FoV","amp;tr":["udp%3A%2F%2Ftracker.openbittorrent.com%3A80","udp%3A%2F%2Fopen.demonii.com%3A1337","udp%3A%2F%2Ftracker.coppersurfer.tk%3A6969","udp%3A%2F%2Fexodus.desync.com%3A6969"],"infoHash":"d1d1bb0522028997abdc33efa5439f349163eb46","infoHashBuffer":{"type":"Buffer","data":[209,209,187,5,34,2,137,151,171,220,51,239,165,67,159,52,145,99,235,70]},"announce":[],"urlList":[]}}